<svg width="1070" height="880" xmlns="http://www.w3.org/2000/svg">
 <style type="text/css">.st0{fill:#FFFFFF;}</style>

 <g>
  <title>Layer 1</title>
  <path fill="#fff" id="svg_2" d="m1021.12222,180.02674l32.67662,-84.68996l-1.34623,-5.26253l-323.46181,85.1795c34.51238,-49.93281 22.6411,-89.95249 22.6411,-89.95249s-103.29238,65.96516 -181.49597,64.25178c-78.08121,-1.71338 -103.29238,-22.51872 -223.10665,15.6652s-153.71473,155.42811 -188.3495,180.63928c-34.75715,25.21117 -143.67921,107.20868 -143.67921,107.20868l0.24477,1.46861l98.27462,-31.33039c0,0 -26.92455,25.33356 -84.20043,102.55808c0,0 -0.97907,-0.85669 -2.69246,-2.44769l0.12238,0.48954c0,0 46.01651,70.37099 91.17633,57.27587c4.52822,-1.34623 9.66836,-3.42676 15.29804,-6.36399c18.11288,10.1579 41.85544,20.07103 68.04569,22.76349c0,0 -17.74573,-20.56057 -32.55423,-44.05836c4.03868,-2.57007 8.07737,-5.26253 12.23843,-7.95498l-1.95815,1.34623l37.44961,13.70705l-4.16107,-35.12431c0.12238,-0.12238 0.24477,-0.12238 0.36715,-0.24477l36.7153,13.46228l-4.52822,-31.94231c4.6506,-2.44769 9.30121,-4.77299 13.95181,-6.85352l38.3063,-144.78067l158.48772,-108.06537l-12.60559,31.69754c-32.0647,79.06028 -92.40018,97.6627 -92.40018,97.6627l-25.21117,9.54598c-18.7248,22.15157 -26.5574,27.53648 -33.04377,101.82377c15.05327,-3.79391 29.49463,-4.6506 42.58975,-1.22384c67.67854,18.23527 91.17633,99.86562 72.94107,122.38434c-4.52822,5.62968 -15.42043,15.29804 -29.12747,26.67979l-27.41409,0l-0.36715,22.27395c-0.97907,0.73431 -1.83577,1.46861 -2.81484,2.20292l-27.90363,0l-0.36715,21.78441c-2.44769,1.83577 -4.89537,3.67153 -7.34306,5.5073c-26.31263,0.48954 -59.47879,-22.39633 -59.47879,-22.39633c0,20.80534 17.37858,52.99242 17.37858,52.99242s1.10146,-0.48954 3.05961,-1.46861c-1.71338,1.22384 -2.69246,1.95815 -2.69246,1.95815s70.37099,46.8732 114.55174,29.49463c39.40776,-15.42043 141.23153,-95.82694 229.22587,-133.88847l266.18594,-70.12623l35.12431,-90.93156l-202.91323,53.48196l0,-81.75274l238.03754,-62.66078l35.12431,-90.93156l-273.16184,71.96199l0,-81.75274l308.16377,-81.2632zm-483.17337,173.17384l63.15032,-16.64427l0.85669,3.18199l-19.70388,51.03427l-65.47562,17.25619l21.17249,-54.82818zm21.78441,109.28921l-65.47562,17.25619l21.17249,-54.82818l63.15032,-16.64427l0.85669,3.18199l-19.70388,51.03427zm85.30188,-18.35765l-65.47562,17.25619l21.17249,-54.82818l63.15032,-16.64427l0.85669,3.18199l-19.70388,51.03427z"/>
 </g>
</svg>